<svg xmlns="http://www.w3.org/2000/svg" width="1200" height="450" viewBox="0 0 1200 450" role="img" aria-labelledby="title"><title id="title">Tegar Prayuda: solopreneur, SaaS builder and AI-native engineer from Bogor, Indonesia</title><defs><path id="body8-H" d="M66 0V-745H221V-423H511V-745H666V0H511V-288H221V0Z"/><path id="body8-A" d="M11 0 263 -745H469L721 0H552L502 -152H229L179 0ZM272 -287H459L366 -574Z"/><path id="body8-L" d="M66 0V-745H221V-135H536V0Z"/><path id="body8-O" d="M439 12Q355 12 283 -17Q211 -46 158 -98Q104 -151 74 -221Q44 -291 44 -373Q44 -455 74 -525Q103 -595 156 -647Q210 -699 282 -728Q354 -757 439 -757Q524 -757 596 -728Q668 -699 722 -647Q775 -595 804 -525Q834 -455 834 -373Q834 -291 804 -221Q774 -151 720 -98Q667 -46 595 -17Q523 12 439 12ZM439 -128Q490 -128 534 -146Q577 -164 610 -196Q643 -229 661 -274Q679 -319 679 -373Q679 -427 661 -472Q643 -516 610 -549Q577 -582 534 -600Q490 -617 439 -617Q388 -617 344 -600Q301 -582 268 -549Q235 -516 217 -472Q199 -427 199 -373Q199 -319 217 -274Q235 -229 268 -196Q301 -164 344 -146Q388 -128 439 -128Z"/><path id="body8-exclam" d="M135 -230 125 -745H275L265 -230ZM125 0V-150H275V0Z"/><path id="body8-I" d="M66 0V-745H221V0Z"/><path id="body8-quoteright" d="M110 -440V-515Q145 -523 168 -544Q190 -566 197 -595H130V-745H280V-658Q280 -570 237 -514Q194 -457 110 -440Z"/><path id="body8-M" d="M66 0V-745H216L459 -422L696 -745H846V0H691V-480L466 -190H446L221 -491V0Z"/><path id="display-T" d="M208 0V-526H16V-660H564V-526H370V0Z"/><path id="display-e" d="M313 14Q247 14 195 -4Q143 -21 106 -55Q70 -89 51 -139Q32 -189 32 -254Q32 -317 50 -370Q69 -423 104 -462Q138 -500 188 -521Q239 -542 302 -542Q366 -542 414 -522Q463 -501 494 -461Q526 -421 541 -364Q556 -306 551 -232L187 -229Q192 -168 222 -138Q257 -101 312 -101Q339 -101 357 -108Q375 -116 386 -128Q398 -139 404 -153Q411 -167 415 -180L555 -150Q547 -113 530 -83Q512 -53 482 -31Q453 -9 412 2Q370 14 313 14ZM191 -313 404 -315Q404 -340 396 -359Q383 -390 358 -404Q333 -419 304 -419Q269 -419 242 -400Q216 -381 201 -345Q195 -331 191 -313Z"/><path id="display-g" d="M275 185Q187 185 130 172Q74 158 48 132Q22 105 22 67Q22 21 58 -8Q95 -37 166 -41V-62Q111 -62 82 -73Q52 -84 52 -114Q52 -142 81 -165Q110 -188 177 -201V-222Q116 -227 80 -262Q44 -298 44 -356Q44 -405 72 -446Q100 -486 156 -510Q212 -535 296 -535H570V-414L403 -436V-412Q468 -403 496 -382Q524 -361 524 -323Q524 -283 496 -252Q469 -221 419 -204Q369 -186 300 -186Q288 -186 274 -187Q259 -188 220 -192Q204 -178 195 -168Q186 -159 186 -151Q186 -145 191 -141Q196 -137 206 -136Q215 -134 226 -134H387Q407 -134 440 -132Q472 -129 504 -116Q537 -103 560 -74Q582 -45 582 9Q582 68 549 108Q516 147 448 166Q380 185 275 185ZM296 57Q354 57 386 51Q418 45 430 32Q443 19 443 0Q443 -18 436 -28Q429 -39 418 -43Q407 -47 396 -48Q384 -49 376 -49H247Q210 -49 192 -32Q175 -14 175 9Q175 28 187 38Q199 49 226 53Q252 57 296 57ZM289 -266Q332 -266 354 -289Q375 -312 375 -347Q375 -385 353 -410Q331 -434 290 -434Q249 -434 226 -410Q203 -385 203 -347Q203 -324 213 -306Q223 -287 242 -276Q261 -266 289 -266Z"/><path id="display-a" d="M186 14Q142 14 108 -4Q74 -21 55 -54Q36 -88 36 -136Q36 -181 54 -210Q71 -240 104 -258Q138 -275 185 -286Q232 -298 292 -307Q321 -312 340 -316Q360 -321 370 -331Q380 -341 380 -360Q380 -385 362 -403Q344 -421 304 -421Q276 -421 254 -411Q231 -401 215 -382Q199 -363 191 -336L49 -378Q62 -420 86 -451Q109 -482 142 -502Q175 -523 218 -532Q260 -542 308 -542Q388 -542 438 -516Q489 -491 514 -438Q538 -384 538 -300V-219Q538 -183 540 -146Q541 -110 544 -74Q546 -37 550 0H408Q404 -23 400 -56Q396 -88 394 -122H375Q361 -84 334 -52Q308 -21 270 -4Q233 14 186 14ZM259 -100Q277 -100 296 -106Q314 -113 331 -124Q348 -136 362 -153Q376 -170 383 -190L381 -253Q372 -248 361 -245Q338 -238 314 -234Q291 -230 268 -226Q246 -221 228 -214Q211 -207 201 -195Q191 -183 191 -162Q191 -134 210 -117Q229 -100 259 -100Z"/><path id="display-r" d="M62 0V-528H194L197 -349H217Q224 -419 244 -460Q263 -502 300 -521Q336 -540 390 -540Q398 -540 408 -540Q418 -539 431 -537L425 -365Q409 -373 390 -376Q372 -378 358 -378Q319 -378 290 -363Q262 -348 246 -317Q229 -286 224 -239V0Z"/><path id="display-P" d="M69 0V-660H345Q409 -660 460 -645Q512 -630 549 -600Q586 -571 606 -526Q625 -480 625 -419Q625 -341 590 -288Q554 -235 484 -208Q415 -181 311 -181H230V0ZM230 -537V-305H334Q399 -305 431 -332Q463 -359 463 -423Q463 -479 434 -508Q404 -537 340 -537Z"/><path id="display-y" d="M265 184Q225 184 183 177Q141 170 104 156Q66 143 39 121L78 -22Q113 11 162 27Q212 43 258 43Q311 43 346 22Q380 2 398 -40Q417 -83 420 -146L425 -233H401Q392 -168 370 -127Q347 -86 312 -66Q278 -47 231 -47Q173 -47 134 -76Q95 -105 76 -164Q56 -222 56 -309V-528H218V-349Q218 -257 236 -218Q255 -178 295 -178Q316 -178 333 -190Q350 -202 362 -224Q374 -246 380 -278Q387 -309 387 -348V-528H548V-140Q548 -77 536 -25Q525 27 502 66Q480 105 446 132Q412 158 367 171Q322 184 265 184Z"/><path id="display-u" d="M243 14Q149 14 102 -50Q54 -113 54 -243V-528H216V-264Q216 -190 238 -154Q260 -117 305 -117Q332 -117 352 -130Q371 -144 384 -168Q398 -193 404 -225Q411 -257 411 -295V-528H572V0H444L441 -163H421Q406 -101 384 -62Q361 -22 327 -4Q293 14 243 14Z"/><path id="display-d" d="M255 14Q189 14 140 -20Q90 -53 62 -116Q34 -178 34 -265Q34 -345 58 -407Q82 -469 130 -504Q177 -540 247 -540Q297 -540 332 -522Q366 -504 389 -468Q412 -432 426 -377H451Q444 -411 438 -442Q432 -472 428 -498Q425 -525 425 -545V-720H587V0H455L453 -156H431Q420 -96 396 -58Q373 -21 338 -4Q302 14 255 14ZM313 -116Q344 -116 366 -130Q387 -143 400 -164Q413 -185 419 -209Q425 -233 425 -254V-275Q425 -294 420 -313Q415 -332 406 -350Q396 -368 382 -382Q368 -396 350 -404Q331 -412 309 -412Q276 -412 252 -394Q229 -376 216 -343Q204 -310 204 -265Q204 -220 217 -186Q230 -153 255 -134Q280 -116 313 -116Z"/><path id="display-S" d="M331 14Q267 14 215 2Q163 -10 125 -34Q87 -59 65 -97Q43 -135 39 -185L180 -232Q183 -190 204 -162Q225 -134 260 -120Q296 -107 340 -107Q382 -107 410 -118Q439 -128 454 -144Q468 -161 468 -180Q468 -202 449 -216Q430 -231 397 -242Q364 -252 320 -262Q270 -274 222 -288Q174 -302 135 -324Q96 -347 74 -382Q51 -418 51 -472Q51 -533 82 -578Q113 -623 173 -648Q233 -674 321 -674Q408 -674 469 -649Q530 -624 563 -580Q596 -535 599 -476L455 -435Q455 -464 446 -486Q436 -508 419 -522Q402 -537 377 -544Q352 -552 320 -552Q282 -552 256 -543Q229 -534 216 -520Q203 -505 203 -486Q203 -462 224 -446Q244 -431 280 -420Q315 -410 358 -400Q401 -391 447 -378Q493 -364 533 -342Q573 -320 598 -282Q622 -245 622 -188Q622 -127 590 -82Q557 -36 492 -11Q427 14 331 14Z"/><path id="display-o" d="M305 14Q225 14 164 -17Q102 -48 67 -110Q32 -172 32 -265Q32 -358 67 -420Q102 -481 164 -512Q226 -542 306 -542Q386 -542 448 -511Q510 -480 545 -418Q580 -357 580 -264Q580 -169 544 -107Q508 -45 446 -16Q383 14 305 14ZM310 -103Q346 -103 370 -120Q394 -136 406 -170Q418 -204 418 -254Q418 -307 405 -344Q392 -380 366 -400Q341 -419 301 -419Q267 -419 242 -402Q218 -386 206 -352Q194 -318 194 -267Q194 -185 224 -144Q255 -103 310 -103Z"/><path id="display-l" d="M62 0V-720H220V0Z"/><path id="display-p" d="M62 169V-528H194L196 -378L214 -376Q223 -432 246 -469Q269 -506 306 -524Q342 -542 389 -542Q459 -542 510 -508Q560 -474 587 -411Q614 -348 614 -260Q614 -182 590 -120Q567 -58 520 -22Q472 14 399 14Q350 14 316 -4Q282 -21 258 -55Q235 -89 219 -140H200Q206 -113 211 -85Q216 -57 220 -31Q223 -5 223 19V169ZM340 -113Q373 -113 396 -131Q420 -149 433 -182Q446 -215 446 -259Q446 -306 432 -340Q419 -373 394 -392Q369 -410 336 -410Q305 -410 284 -396Q262 -383 248 -362Q235 -340 229 -316Q223 -292 223 -271V-249Q223 -230 228 -211Q233 -192 243 -174Q253 -157 267 -143Q281 -129 300 -121Q318 -113 340 -113Z"/><path id="display-n" d="M62 0V-528H192L194 -373H214Q227 -429 251 -467Q275 -505 312 -524Q349 -542 399 -542Q492 -542 540 -477Q589 -412 589 -270V0H427V-252Q427 -334 404 -372Q380 -409 334 -409Q296 -409 272 -386Q247 -363 235 -325Q223 -287 223 -240V0Z"/><path id="display-B" d="M69 0V-660H354Q416 -660 466 -650Q515 -639 550 -618Q585 -596 604 -562Q622 -529 622 -483Q622 -444 606 -415Q589 -386 554 -368Q519 -350 461 -344V-327Q557 -321 603 -281Q649 -241 649 -173Q649 -115 618 -77Q587 -39 527 -20Q467 0 379 0ZM223 -128H373Q434 -128 463 -146Q492 -163 492 -201Q492 -243 457 -264Q422 -285 350 -285H223ZM223 -383H328Q399 -383 432 -402Q465 -422 465 -461Q465 -499 434 -516Q404 -534 342 -534H223Z"/><path id="display-i" d="M62 0V-528H223V0ZM143 -602Q97 -602 72 -622Q48 -641 48 -677Q48 -715 72 -734Q97 -754 143 -754Q190 -754 214 -734Q239 -715 239 -678Q239 -641 214 -622Q190 -602 143 -602Z"/><path id="display-A" d="M14 0 238 -660H474L698 0H522L485 -124H227L190 0ZM453 -232 364 -534H348L259 -232Z"/><path id="display-I" d="M69 0V-660H233V0Z"/><path id="display-hyphen" d="M30 -193V-339H329V-193Z"/><path id="display-N" d="M69 0V-660H278L561 -217H573L563 -660H720V0H531L228 -468H217L226 0Z"/><path id="display-t" d="M268 13Q175 13 131 -36Q87 -86 87 -195V-402H12L15 -527H69Q101 -528 118 -537Q134 -546 138 -571L151 -645H242V-528H369V-397H242V-202Q242 -168 258 -152Q275 -136 309 -136Q328 -136 345 -140Q362 -144 373 -151V-2Q341 8 314 10Q288 13 268 13Z"/><path id="display-v" d="M181 0 8 -527H187L287 -126H304L406 -527H577L403 0Z"/><path id="display-E" d="M69 0V-660H590V-531H231V-391H542V-274H231V-130H593V0Z"/><path id="display-H" d="M499 0V-268H230V0H69V-660H230V-398H499V-660H660V0Z"/><path id="display-c" d="M311 14Q243 14 191 -5Q139 -24 104 -60Q69 -95 50 -145Q32 -195 32 -257Q32 -321 50 -373Q69 -425 104 -463Q139 -501 190 -522Q241 -542 307 -542Q373 -542 421 -521Q469 -500 500 -462Q530 -424 541 -374L392 -324Q389 -357 376 -378Q363 -399 342 -408Q322 -418 298 -418Q273 -418 254 -408Q235 -398 222 -378Q209 -358 202 -330Q195 -301 195 -264Q195 -211 208 -176Q222 -140 248 -122Q275 -104 313 -104Q352 -104 374 -120Q396 -136 406 -160Q416 -183 418 -206L558 -175Q554 -138 538 -104Q523 -69 493 -42Q463 -16 418 -1Q374 14 311 14Z"/><path id="display-k" d="M62 0V-721H220V-323Q249 -344 274 -368Q300 -392 322 -418Q343 -444 360 -472Q378 -499 391 -528H575Q562 -489 539 -450Q516 -412 483 -380Q450 -347 404 -324Q359 -301 302 -293V-275Q374 -289 420 -276Q467 -262 495 -232Q523 -202 538 -162Q553 -122 563 -83L584 0H409L399 -50Q389 -99 376 -134Q362 -169 337 -188Q312 -208 265 -208H220V0Z"/><path id="display-V" d="M229 0 14 -660H190L335 -135H349L494 -660H668L453 0Z"/><path id="display-b" d="M396 14Q346 14 308 -5Q271 -24 248 -62Q224 -100 216 -156H197L194 0H62V-720H223V-545Q223 -521 220 -494Q216 -468 210 -439Q205 -410 199 -377H222Q236 -431 259 -467Q282 -503 316 -522Q351 -540 398 -540Q464 -540 512 -506Q561 -472 588 -410Q615 -347 615 -260Q615 -176 588 -114Q562 -53 513 -20Q464 14 396 14ZM336 -116Q369 -116 394 -134Q419 -153 432 -186Q446 -220 446 -265Q446 -311 433 -344Q420 -376 396 -394Q373 -412 340 -412Q318 -412 300 -404Q281 -396 267 -382Q253 -368 243 -350Q233 -333 228 -314Q223 -294 223 -275V-254Q223 -233 229 -209Q235 -185 248 -164Q262 -143 284 -130Q305 -116 336 -116Z"/><path id="display-C" d="M379 14Q301 14 239 -7Q177 -28 134 -71Q90 -114 68 -176Q45 -239 45 -323Q45 -409 68 -474Q91 -539 134 -584Q178 -629 237 -652Q296 -674 368 -674Q425 -674 472 -660Q520 -646 555 -618Q590 -591 610 -552Q629 -514 630 -465L481 -424Q481 -465 464 -491Q446 -517 420 -530Q393 -544 362 -544Q337 -544 310 -534Q284 -523 262 -498Q240 -474 227 -434Q214 -394 214 -334Q214 -256 236 -208Q258 -160 297 -138Q336 -115 383 -115Q435 -115 464 -138Q492 -160 504 -194Q516 -228 517 -263L657 -241Q656 -187 641 -140Q626 -93 594 -58Q561 -24 508 -5Q455 14 379 14Z"/><path id="display-D" d="M69 0V-660H309Q432 -660 510 -621Q588 -582 624 -510Q660 -437 660 -336Q660 -258 642 -201Q623 -144 591 -106Q559 -67 518 -44Q476 -20 430 -10Q385 0 340 0ZM230 -530V-130H335Q387 -130 422 -152Q457 -174 474 -218Q492 -262 492 -328Q492 -381 481 -419Q470 -457 448 -482Q427 -506 394 -518Q360 -530 315 -530Z"/><path id="display-m" d="M62 0V-528H189L191 -373H211Q225 -430 248 -468Q271 -505 304 -524Q337 -542 381 -542Q427 -542 458 -522Q488 -503 506 -466Q524 -428 530 -373H547Q563 -432 589 -470Q615 -507 651 -524Q687 -542 729 -542Q774 -542 808 -524Q841 -507 864 -472Q886 -438 897 -386Q908 -335 908 -267V0H746V-247Q746 -300 738 -335Q729 -370 711 -388Q693 -405 665 -405Q633 -405 610 -384Q588 -363 576 -326Q564 -288 564 -241V0H406V-244Q406 -299 396 -334Q387 -369 368 -387Q350 -405 322 -405Q290 -405 268 -384Q246 -363 234 -326Q223 -288 223 -241V0Z"/><path id="body5-I" d="M83 0V-745H181V0Z"/><path id="body5-b" d="M351 12Q286 12 233 -17Q190 -40 163 -78V0H72V-757H165V-466Q192 -500 233 -523Q285 -551 352 -551Q428 -551 488 -514Q549 -477 584 -414Q619 -350 619 -269Q619 -190 584 -126Q549 -62 488 -25Q428 12 351 12ZM344 -78Q395 -78 435 -103Q475 -128 498 -172Q520 -215 520 -269Q520 -325 498 -368Q475 -410 435 -436Q395 -461 344 -461Q293 -461 252 -436Q212 -411 188 -368Q165 -324 165 -269Q165 -215 188 -172Q212 -128 252 -103Q293 -78 344 -78Z"/><path id="body5-u" d="M263 12Q205 12 158 -15Q112 -42 86 -90Q61 -139 61 -202V-539H154V-212Q154 -172 170 -142Q187 -112 216 -95Q246 -78 284 -78Q322 -78 352 -95Q381 -112 398 -144Q414 -176 414 -220V-539H508V0H417V-65Q398 -36 368 -17Q322 12 263 12Z"/><path id="body5-i" d="M72 0V-539H165V0ZM72 -625V-745H165V-625Z"/><path id="body5-l" d="M72 0V-757H165V0Z"/><path id="body5-d" d="M317 12Q241 12 180 -25Q120 -62 85 -126Q50 -190 50 -269Q50 -350 85 -414Q120 -477 180 -514Q241 -551 317 -551Q384 -551 436 -523Q476 -501 503 -467V-757H597V0H506V-79Q479 -40 437 -17Q383 12 317 12ZM325 -78Q376 -78 416 -103Q456 -128 480 -172Q503 -215 503 -269Q503 -324 480 -368Q456 -411 416 -436Q376 -461 325 -461Q275 -461 234 -436Q194 -410 171 -368Q148 -325 148 -269Q148 -215 171 -172Q194 -128 234 -103Q274 -78 325 -78Z"/><path id="body5-a" d="M230 12Q177 12 136 -8Q96 -27 73 -62Q50 -96 50 -141Q50 -184 68 -218Q87 -253 126 -277Q166 -301 226 -311L410 -341V-366Q410 -410 378 -438Q345 -465 292 -465Q246 -465 210 -442Q175 -418 158 -379L77 -421Q92 -458 125 -488Q158 -517 202 -534Q246 -551 294 -551Q356 -551 403 -528Q450 -504 476 -462Q503 -421 503 -366V0H412V-70Q399 -54 383 -40Q354 -16 315 -2Q276 12 230 12ZM410 -263 247 -236Q195 -227 172 -203Q148 -179 148 -144Q148 -111 174 -89Q201 -67 241 -67Q292 -67 330 -88Q367 -110 388 -147Q410 -184 410 -229Z"/><path id="body5-n" d="M72 0V-539H163V-473Q182 -503 213 -523Q257 -551 317 -551Q375 -551 420 -525Q466 -499 492 -453Q519 -407 519 -349V0H425V-319Q425 -364 409 -395Q393 -426 364 -444Q334 -461 296 -461Q258 -461 228 -444Q199 -426 182 -394Q165 -363 165 -319V0Z"/><path id="body5-y" d="M101 220Q83 220 65 217Q47 214 31 207V124Q42 126 58 128Q75 131 91 131Q138 131 162 110Q187 90 209 40L225 1L11 -539H112L276 -118L439 -539H542L299 64Q282 107 256 142Q229 178 191 199Q153 220 101 220Z"/><path id="body5-t" d="M291 6Q212 6 170 -39Q127 -84 127 -166V-450H29V-539H49Q85 -539 106 -561Q127 -583 127 -619V-663H220V-539H341V-450H220V-169Q220 -142 228 -122Q237 -102 257 -90Q277 -79 310 -79Q317 -79 328 -80Q338 -81 347 -82V0Q334 3 318 4Q302 6 291 6Z"/><path id="body5-h" d="M72 0V-757H165V-476Q184 -504 213 -523Q257 -551 317 -551Q375 -551 420 -525Q466 -499 492 -453Q519 -407 519 -349V0H425V-319Q425 -364 408 -395Q392 -426 363 -444Q334 -461 296 -461Q259 -461 229 -444Q199 -426 182 -394Q165 -363 165 -319V0Z"/><path id="body5-g" d="M329 220Q272 220 224 202Q175 184 140 152Q106 121 88 79L175 39Q189 77 228 104Q268 130 328 130Q374 130 412 112Q449 95 471 60Q493 26 493 -23V-98Q468 -63 430 -42Q377 -13 314 -13Q238 -13 178 -48Q118 -84 84 -146Q50 -207 50 -282Q50 -358 84 -419Q118 -480 178 -516Q237 -551 313 -551Q376 -551 428 -523Q468 -500 496 -464V-539H587V-23Q587 47 554 102Q521 157 462 188Q404 220 329 220ZM322 -103Q370 -103 408 -127Q447 -151 470 -192Q493 -232 493 -282Q493 -331 470 -372Q447 -413 408 -437Q370 -461 322 -461Q273 -461 233 -437Q193 -413 170 -372Q148 -332 148 -282Q148 -232 170 -192Q193 -151 232 -127Q272 -103 322 -103Z"/><path id="body5-o" d="M328 12Q250 12 187 -24Q124 -61 87 -125Q50 -189 50 -270Q50 -351 86 -414Q123 -477 186 -514Q249 -551 328 -551Q406 -551 469 -514Q532 -478 568 -415Q605 -352 605 -270Q605 -188 567 -124Q529 -61 466 -24Q404 12 328 12ZM328 -78Q378 -78 418 -103Q459 -128 482 -172Q506 -216 506 -270Q506 -325 482 -368Q459 -410 418 -436Q378 -461 328 -461Q277 -461 236 -436Q196 -410 172 -368Q148 -325 148 -270Q148 -216 172 -172Q196 -128 236 -103Q277 -78 328 -78Z"/><path id="body5-e" d="M320 12Q242 12 181 -25Q120 -62 85 -126Q50 -191 50 -271Q50 -352 84 -415Q119 -478 178 -514Q238 -551 312 -551Q372 -551 418 -530Q465 -508 498 -472Q530 -435 548 -388Q565 -342 565 -292Q565 -281 564 -268Q562 -254 560 -242H148Q150 -200 167 -167Q189 -122 230 -98Q272 -73 321 -73Q375 -73 412 -98Q449 -123 472 -162L550 -122Q534 -85 500 -54Q467 -24 422 -6Q376 12 320 12ZM150 -322H465Q464 -353 452 -379Q433 -420 396 -444Q359 -468 312 -468Q265 -468 226 -444Q187 -420 166 -376Q154 -351 150 -322Z"/><path id="body5-r" d="M72 0V-539H163V-474Q181 -505 211 -523Q250 -545 306 -545H339V-457H292Q235 -457 200 -422Q165 -386 165 -321V0Z"/><path id="body5-colon" d="M110 0V-120H207V0ZM110 -419V-539H207V-419Z"/><path id="body5-s" d="M265 12Q184 12 124 -28Q64 -68 39 -136L113 -172Q136 -124 176 -96Q216 -68 265 -68Q309 -68 338 -89Q367 -110 367 -144Q367 -168 354 -182Q340 -197 321 -206Q302 -214 286 -218L205 -241Q132 -262 98 -301Q65 -340 65 -392Q65 -440 90 -476Q114 -511 156 -531Q199 -551 252 -551Q323 -551 380 -515Q436 -479 460 -414L384 -379Q366 -421 330 -446Q294 -470 249 -470Q208 -470 184 -450Q160 -429 160 -398Q160 -375 172 -360Q184 -346 201 -338Q218 -331 234 -326L322 -300Q388 -281 424 -241Q461 -201 461 -145Q461 -100 436 -64Q411 -28 367 -8Q323 12 265 12Z"/><path id="body5-comma" d="M88 139V94Q119 86 135 63Q151 40 153 0H108V-120H205V-35Q205 37 176 81Q146 125 88 139Z"/><path id="body5-A" d="M11 0 278 -745H394L661 0H556L495 -175H177L116 0ZM208 -265H464L336 -634Z"/><path id="body5-hyphen" d="M79 -227V-312H454V-227Z"/><path id="body5-v" d="M222 0 11 -539H115L266 -131L418 -539H522L310 0Z"/><path id="body5-c" d="M322 12Q243 12 182 -25Q120 -62 85 -126Q50 -190 50 -270Q50 -351 85 -414Q120 -477 182 -514Q243 -551 322 -551Q375 -551 421 -532Q467 -513 502 -481Q537 -449 553 -406L470 -366Q451 -408 412 -434Q373 -461 322 -461Q273 -461 234 -436Q194 -411 171 -368Q148 -325 148 -269Q148 -215 171 -172Q194 -128 234 -103Q273 -78 322 -78Q373 -78 412 -104Q451 -131 470 -175L553 -133Q537 -91 502 -58Q467 -26 421 -7Q375 12 322 12Z"/><path id="body5-p" d="M72 200V-539H163V-463Q191 -499 233 -523Q285 -551 352 -551Q428 -551 488 -514Q549 -477 584 -414Q619 -350 619 -269Q619 -190 584 -126Q549 -62 488 -25Q428 12 351 12Q286 12 233 -17Q192 -39 165 -75V200ZM344 -78Q395 -78 435 -103Q475 -128 498 -172Q520 -215 520 -269Q520 -325 498 -368Q475 -410 435 -436Q395 -461 344 -461Q293 -461 252 -436Q212 -411 188 -368Q165 -324 165 -269Q165 -215 188 -172Q212 -128 252 -103Q293 -78 344 -78Z"/><path id="body5-period" d="M110 0V-120H207V0Z"/><path id="body7-B" d="M72 0V-745H386Q460 -745 512 -720Q565 -694 594 -648Q622 -601 622 -535Q622 -484 595 -440Q582 -419 562 -402Q580 -390 594 -377Q626 -346 639 -308Q652 -270 652 -228Q652 -121 582 -60Q511 0 386 0ZM208 -120H400Q453 -120 484 -150Q516 -179 516 -228Q516 -277 484 -307Q453 -337 400 -337H208ZM208 -456H393Q435 -456 460 -480Q485 -505 485 -544Q485 -583 460 -606Q435 -629 393 -629H208Z"/><path id="body7-o" d="M327 12Q247 12 182 -25Q116 -62 78 -126Q39 -190 39 -272Q39 -354 78 -418Q116 -482 181 -519Q246 -556 327 -556Q407 -556 472 -519Q537 -482 576 -418Q614 -355 614 -272Q614 -190 575 -126Q536 -62 471 -25Q406 12 327 12ZM327 -108Q371 -108 404 -129Q438 -150 458 -188Q477 -225 477 -272Q477 -320 458 -356Q438 -393 404 -414Q371 -436 327 -436Q282 -436 248 -414Q214 -393 194 -356Q175 -320 175 -272Q175 -225 194 -188Q214 -150 248 -129Q282 -108 327 -108Z"/><path id="body7-g" d="M325 220Q264 220 212 200Q160 180 122 144Q85 109 68 61L190 15Q202 53 238 76Q273 100 325 100Q365 100 396 85Q426 70 443 42Q460 13 460 -27V-86Q438 -62 410 -47Q363 -22 303 -22Q227 -22 167 -57Q107 -92 73 -153Q39 -214 39 -290Q39 -367 73 -427Q107 -487 166 -522Q225 -556 300 -556Q361 -556 408 -531Q441 -512 467 -481V-544H591V-27Q591 44 556 100Q522 156 462 188Q403 220 325 220ZM319 -143Q361 -143 392 -162Q424 -180 442 -213Q460 -246 460 -289Q460 -331 442 -364Q423 -398 392 -417Q360 -436 319 -436Q278 -436 245 -417Q212 -398 194 -364Q175 -331 175 -289Q175 -247 194 -214Q212 -181 244 -162Q277 -143 319 -143Z"/><path id="body7-r" d="M61 0V-544H184V-467Q202 -508 234 -526Q274 -550 331 -550H363V-434H316Q260 -434 226 -400Q192 -365 192 -303V0Z"/><path id="body7-comma" d="M103 156V91Q136 83 156 60Q177 38 182 0H123V-140H255V-54Q255 34 216 87Q178 140 103 156Z"/><path id="body7-I" d="M72 0V-745H208V0Z"/><path id="body7-n" d="M61 0V-544H184V-477Q203 -511 237 -531Q280 -556 338 -556Q398 -556 444 -530Q491 -504 517 -458Q543 -411 543 -350V0H412V-319Q412 -355 398 -381Q384 -407 360 -422Q335 -436 302 -436Q270 -436 245 -422Q220 -407 206 -381Q192 -355 192 -319V0Z"/><path id="body7-d" d="M314 12Q235 12 173 -26Q111 -63 75 -128Q39 -193 39 -272Q39 -352 75 -416Q111 -480 174 -518Q236 -556 313 -556Q375 -556 424 -532Q456 -515 480 -489V-757H611V0H487V-60Q462 -30 423 -12Q373 12 314 12ZM328 -108Q373 -108 407 -129Q441 -150 460 -187Q480 -224 480 -272Q480 -319 460 -356Q441 -394 407 -415Q373 -436 328 -436Q284 -436 249 -414Q214 -393 194 -356Q175 -320 175 -272Q175 -224 194 -187Q214 -150 249 -129Q284 -108 328 -108Z"/><path id="body7-e" d="M319 12Q235 12 172 -26Q109 -64 74 -129Q39 -194 39 -273Q39 -355 74 -418Q110 -482 172 -519Q233 -556 309 -556Q373 -556 422 -535Q470 -514 504 -477Q538 -440 556 -392Q574 -345 574 -290Q574 -276 572 -261Q571 -246 567 -235H175Q178 -207 189 -184Q206 -145 240 -124Q275 -103 320 -103Q365 -103 396 -122Q428 -141 446 -173L552 -121Q536 -82 502 -52Q468 -22 422 -5Q375 12 319 12ZM178 -335H434Q433 -354 427 -370Q413 -406 382 -427Q352 -448 309 -448Q268 -448 236 -428Q204 -407 188 -368Q181 -352 178 -335Z"/><path id="body7-s" d="M268 12Q181 12 116 -30Q52 -71 28 -142L126 -189Q147 -143 184 -117Q222 -91 268 -91Q304 -91 325 -107Q346 -123 346 -149Q346 -165 338 -176Q329 -186 314 -194Q300 -201 283 -206L194 -231Q125 -251 90 -292Q54 -333 54 -389Q54 -439 80 -476Q105 -514 150 -535Q196 -556 255 -556Q332 -556 391 -519Q450 -482 475 -415L375 -368Q361 -405 328 -427Q295 -449 254 -449Q221 -449 202 -434Q183 -419 183 -395Q183 -380 191 -369Q199 -358 214 -351Q228 -344 247 -338L334 -312Q401 -292 438 -252Q474 -212 474 -154Q474 -105 448 -68Q422 -30 376 -9Q330 12 268 12Z"/><path id="body7-i" d="M61 0V-544H192V0ZM61 -605V-745H192V-605Z"/><path id="body7-a" d="M226 12Q169 12 127 -7Q85 -26 62 -62Q39 -97 39 -144Q39 -189 59 -224Q79 -260 121 -284Q163 -308 227 -318L389 -344V-362Q389 -397 362 -420Q334 -444 289 -444Q247 -444 214 -422Q182 -399 167 -362L60 -414Q76 -457 110 -488Q145 -520 192 -538Q239 -556 294 -556Q361 -556 412 -532Q463 -507 492 -464Q520 -420 520 -362V0H396V-57Q386 -46 374 -37Q345 -13 308 0Q271 12 226 12ZM389 -244 252 -221Q213 -214 194 -196Q175 -178 175 -149Q175 -121 196 -104Q218 -88 250 -88Q291 -88 322 -106Q354 -123 372 -154Q389 -185 389 -222Z"/><path id="body7-t" d="M309 6Q217 6 166 -44Q116 -95 116 -187V-427H22V-544H32Q72 -544 94 -565Q116 -586 116 -626V-668H247V-544H372V-427H247V-194Q247 -167 256 -148Q266 -129 286 -119Q307 -109 339 -109Q346 -109 356 -110Q365 -111 374 -112V0Q360 2 342 4Q324 6 309 6Z"/><path id="body7-p" d="M61 200V-544H184V-480Q210 -512 248 -532Q296 -556 359 -556Q436 -556 498 -518Q560 -480 596 -416Q633 -352 633 -272Q633 -193 597 -128Q561 -63 499 -26Q437 12 358 12Q299 12 250 -12Q216 -27 192 -53V200ZM343 -108Q388 -108 423 -129Q458 -150 478 -187Q497 -224 497 -272Q497 -320 478 -356Q458 -393 423 -414Q388 -436 343 -436Q300 -436 266 -415Q231 -394 212 -356Q192 -319 192 -272Q192 -224 212 -187Q231 -150 266 -129Q300 -108 343 -108Z"/><path id="body7-y" d="M127 220Q105 220 84 216Q63 213 46 204V95Q59 98 78 101Q96 104 112 104Q157 104 178 84Q198 63 214 29L226 0L11 -544H152L293 -169L433 -544H575L338 55Q317 107 287 144Q257 181 218 200Q178 220 127 220Z"/><path id="body7-u" d="M255 12Q192 12 146 -16Q99 -44 74 -94Q50 -144 50 -211V-544H181V-222Q181 -188 194 -162Q208 -137 234 -122Q259 -108 291 -108Q323 -108 348 -122Q373 -137 387 -163Q401 -189 401 -225V-544H532V0H408V-65Q389 -32 357 -13Q313 12 255 12Z"/><path id="body7-period" d="M123 0V-140H255V0Z"/><path id="body7-c" d="M323 12Q242 12 178 -26Q113 -63 76 -128Q39 -192 39 -273Q39 -354 76 -418Q113 -482 178 -519Q242 -556 323 -556Q381 -556 431 -536Q481 -515 518 -480Q554 -444 570 -395L455 -345Q440 -386 404 -411Q369 -436 323 -436Q280 -436 246 -415Q213 -394 194 -357Q175 -320 175 -272Q175 -224 194 -187Q213 -150 246 -129Q280 -108 323 -108Q370 -108 405 -133Q440 -158 455 -200L570 -148Q554 -102 518 -66Q482 -29 432 -8Q382 12 323 12Z"/><path id="body7-m" d="M61 0V-544H184V-476Q201 -508 230 -527Q275 -556 336 -556Q403 -556 454 -521Q486 -499 504 -468Q526 -503 558 -524Q608 -556 673 -556Q731 -556 776 -530Q822 -504 848 -458Q874 -411 874 -350V0H743V-319Q743 -355 730 -381Q717 -407 694 -422Q671 -436 638 -436Q607 -436 583 -422Q559 -407 546 -381Q533 -355 533 -319V0H402V-319Q402 -355 389 -381Q376 -407 352 -422Q329 -436 297 -436Q266 -436 242 -422Q218 -407 205 -381Q192 -355 192 -319V0Z"/><path id="body7-O" d="M439 12Q357 12 286 -17Q215 -46 162 -98Q109 -150 80 -220Q50 -291 50 -373Q50 -456 79 -526Q108 -596 161 -648Q214 -700 285 -728Q356 -757 439 -757Q522 -757 593 -728Q664 -699 717 -648Q770 -596 800 -526Q829 -456 829 -373Q829 -291 799 -220Q769 -150 716 -98Q663 -46 592 -17Q522 12 439 12ZM439 -112Q494 -112 540 -132Q586 -151 620 -186Q655 -221 674 -269Q692 -317 692 -373Q692 -429 674 -476Q655 -524 620 -560Q586 -595 540 -614Q494 -633 439 -633Q385 -633 339 -614Q293 -595 258 -560Q224 -524 205 -476Q186 -429 186 -373Q186 -317 205 -269Q224 -221 258 -186Q293 -151 339 -132Q385 -112 439 -112Z"/><path id="body7-l" d="M61 0V-757H192V0Z"/><path id="body7-b" d="M358 12Q299 12 250 -12Q210 -30 184 -62V0H61V-757H192V-489Q215 -515 248 -532Q296 -556 359 -556Q436 -556 498 -518Q560 -480 596 -416Q633 -352 633 -272Q633 -193 597 -128Q561 -63 499 -26Q437 12 358 12ZM343 -108Q388 -108 423 -129Q458 -150 478 -187Q497 -224 497 -272Q497 -320 478 -356Q458 -393 423 -414Q388 -436 343 -436Q300 -436 266 -415Q231 -394 212 -356Q192 -319 192 -272Q192 -224 212 -187Q231 -150 266 -129Q300 -108 343 -108Z"/><path id="body8-S" d="M337 12Q267 12 206 -14Q144 -39 100 -86Q55 -133 33 -197L160 -254Q188 -193 238 -158Q287 -123 347 -123Q379 -123 402 -133Q425 -143 438 -160Q451 -178 451 -202Q451 -228 435 -246Q419 -265 385 -276L239 -324Q150 -353 105 -406Q60 -460 60 -535Q60 -601 92 -651Q125 -701 184 -729Q242 -757 318 -757Q385 -757 442 -734Q499 -711 540 -669Q582 -627 603 -568L477 -511Q456 -563 414 -592Q372 -622 318 -622Q287 -622 263 -612Q239 -602 226 -584Q213 -565 213 -541Q213 -515 230 -496Q247 -476 281 -465L424 -419Q514 -390 558 -338Q603 -286 603 -211Q603 -146 569 -96Q535 -45 476 -16Q416 12 337 12Z"/><path id="body8-P" d="M66 0V-745H352Q429 -745 488 -718Q548 -691 582 -638Q616 -585 616 -507Q616 -431 582 -378Q547 -325 488 -298Q428 -270 352 -270H221V0ZM221 -405H353Q386 -405 410 -418Q434 -431 448 -454Q461 -477 461 -507Q461 -538 448 -561Q434 -584 410 -597Q386 -610 353 -610H221Z"/><path id="body8-R" d="M66 0V-745H351Q428 -745 488 -718Q547 -691 581 -638Q615 -585 615 -507Q615 -431 580 -378Q545 -324 486 -297L656 0H482L331 -270H221V0ZM221 -405H352Q385 -405 409 -418Q433 -431 446 -454Q460 -477 460 -507Q460 -538 446 -561Q433 -584 409 -597Q385 -610 352 -610H221Z"/><path id="body8-E" d="M66 0V-745H567V-610H221V-441H547V-306H221V-135H567V0Z"/><path id="body8-N" d="M66 0V-745H185L521 -302V-745H676V0H556L221 -453V0Z"/><path id="body8-U" d="M362 12Q274 12 205 -25Q136 -62 96 -126Q57 -191 57 -273V-745H212V-283Q212 -239 232 -204Q251 -168 285 -148Q319 -128 362 -128Q406 -128 440 -148Q473 -168 492 -204Q512 -239 512 -283V-745H667V-273Q667 -191 628 -126Q588 -62 519 -25Q450 12 362 12Z"/><path id="body8-B" d="M66 0V-745H381Q458 -745 513 -719Q568 -693 597 -644Q626 -596 626 -527Q626 -478 599 -434Q589 -417 574 -402Q589 -392 601 -380Q633 -348 645 -310Q657 -273 657 -232Q657 -122 584 -61Q511 0 381 0ZM221 -135H399Q446 -135 474 -162Q502 -189 502 -232Q502 -276 474 -303Q446 -330 399 -330H221ZM221 -465H392Q428 -465 450 -486Q471 -506 471 -540Q471 -574 450 -594Q428 -615 392 -615H221Z"/><path id="body8-D" d="M66 0V-745H309Q430 -745 519 -697Q608 -649 657 -565Q706 -481 706 -373Q706 -265 657 -180Q608 -96 519 -48Q430 0 309 0ZM221 -135H313Q386 -135 439 -164Q492 -194 522 -248Q551 -301 551 -373Q551 -446 522 -499Q492 -552 439 -581Q386 -610 313 -610H221Z"/><path id="body8-C" d="M420 12Q340 12 272 -17Q203 -46 152 -98Q101 -150 72 -220Q44 -290 44 -373Q44 -456 72 -526Q100 -597 151 -648Q202 -700 270 -728Q339 -757 420 -757Q501 -757 566 -730Q630 -703 675 -658Q720 -613 739 -558L602 -492Q583 -546 536 -582Q488 -617 420 -617Q354 -617 304 -586Q254 -555 226 -500Q199 -446 199 -373Q199 -300 226 -245Q254 -190 304 -159Q354 -128 420 -128Q488 -128 536 -164Q583 -199 602 -253L739 -187Q720 -132 675 -87Q630 -42 566 -15Q501 12 420 12Z"/><path id="body8-K" d="M66 0V-745H221V-439L476 -745H670L418 -441L676 0H495L313 -315L221 -204V0Z"/><path id="display-less" d="M477 -63 57 -237V-443L477 -615V-446L191 -344V-328L477 -226Z"/><path id="display-slash" d="M-14 89 231 -717H379L134 89Z"/><path id="display-greater" d="M57 -63V-226L343 -328V-344L57 -446V-615L477 -443V-237Z"/><path id="body8-s" d="M269 12Q179 12 112 -30Q46 -73 22 -145L132 -197Q153 -153 189 -128Q225 -103 269 -103Q301 -103 318 -116Q335 -129 335 -152Q335 -164 329 -172Q323 -181 311 -188Q299 -195 281 -200L188 -226Q121 -245 85 -288Q49 -330 49 -388Q49 -439 75 -477Q101 -515 148 -536Q195 -558 256 -558Q336 -558 396 -520Q457 -483 482 -415L371 -363Q359 -397 328 -418Q296 -438 256 -438Q227 -438 210 -426Q194 -414 194 -393Q194 -382 200 -373Q206 -364 220 -357Q233 -350 253 -344L340 -318Q408 -298 444 -258Q480 -217 480 -158Q480 -107 454 -69Q427 -31 380 -10Q333 12 269 12Z"/><path id="body8-h" d="M55 0V-757H205V-496Q222 -520 249 -535Q291 -558 348 -558Q410 -558 456 -532Q503 -506 529 -460Q555 -413 555 -351V0H405V-319Q405 -351 392 -374Q380 -397 358 -410Q335 -423 305 -423Q276 -423 253 -410Q230 -397 218 -374Q205 -351 205 -319V0Z"/><path id="body8-i" d="M55 0V-546H205V0ZM55 -595V-745H205V-595Z"/><path id="body8-p" d="M55 200V-546H195V-489Q219 -518 256 -536Q302 -558 362 -558Q440 -558 503 -520Q566 -482 603 -418Q640 -353 640 -273Q640 -194 604 -129Q567 -64 504 -26Q441 12 361 12Q305 12 258 -9Q228 -21 205 -42V200ZM343 -123Q385 -123 417 -142Q449 -161 467 -195Q485 -229 485 -273Q485 -317 467 -350Q449 -384 417 -404Q385 -423 343 -423Q303 -423 272 -404Q240 -385 222 -351Q205 -317 205 -273Q205 -229 222 -195Q240 -161 272 -142Q303 -123 343 -123Z"/><path id="body8-t" d="M318 6Q219 6 164 -48Q110 -101 110 -197V-416H18V-546H23Q65 -546 88 -567Q110 -588 110 -630V-670H260V-546H388V-416H260V-207Q260 -179 270 -160Q280 -142 301 -133Q322 -124 353 -124Q360 -124 369 -125Q378 -126 388 -127V0Q373 2 354 4Q335 6 318 6Z"/><path id="body8-period" d="M129 0V-150H279V0Z"/><path id="body8-d" d="M312 12Q232 12 169 -26Q106 -64 70 -129Q33 -194 33 -273Q33 -353 70 -418Q107 -482 170 -520Q233 -558 311 -558Q371 -558 418 -536Q447 -521 468 -500V-757H618V0H478V-52Q453 -24 416 -9Q368 12 312 12ZM330 -123Q371 -123 402 -142Q433 -161 450 -195Q468 -229 468 -273Q468 -317 450 -351Q433 -385 402 -404Q371 -423 330 -423Q289 -423 256 -404Q224 -384 206 -350Q188 -317 188 -273Q188 -229 206 -195Q224 -161 256 -142Q289 -123 330 -123Z"/><path id="body8-o" d="M326 12Q245 12 178 -25Q112 -62 72 -126Q33 -191 33 -273Q33 -356 72 -420Q112 -484 178 -521Q245 -558 326 -558Q407 -558 473 -521Q539 -484 578 -420Q618 -356 618 -273Q618 -191 578 -126Q539 -62 473 -25Q407 12 326 12ZM326 -123Q367 -123 398 -142Q428 -161 446 -195Q463 -229 463 -273Q463 -317 446 -350Q428 -384 398 -404Q367 -423 326 -423Q285 -423 254 -404Q223 -384 206 -350Q188 -317 188 -273Q188 -229 206 -195Q223 -161 254 -142Q285 -123 326 -123Z"/><path id="body8-n" d="M55 0V-546H195V-480Q214 -515 249 -535Q291 -558 348 -558Q410 -558 456 -532Q503 -506 529 -460Q555 -413 555 -351V0H405V-319Q405 -351 392 -374Q380 -397 358 -410Q335 -423 305 -423Q276 -423 253 -410Q230 -397 218 -374Q205 -351 205 -319V0Z"/><path id="body8-e" d="M318 12Q231 12 167 -26Q103 -65 68 -130Q33 -195 33 -274Q33 -356 70 -420Q106 -484 168 -521Q230 -558 308 -558Q373 -558 423 -538Q473 -517 508 -480Q542 -443 560 -394Q578 -346 578 -289Q578 -273 576 -258Q575 -242 571 -231H189Q191 -210 199 -192Q214 -157 245 -138Q276 -118 320 -118Q360 -118 388 -134Q417 -150 433 -178L553 -121Q537 -81 502 -51Q468 -21 421 -4Q374 12 318 12ZM192 -341H419Q418 -354 414 -366Q403 -399 376 -418Q348 -438 308 -438Q269 -438 241 -419Q213 -400 199 -363Q195 -353 192 -341Z"/><path id="body8-greater" d="M114 -4V-155L401 -273L114 -392V-543L589 -347V-199Z"/><path id="body8-r" d="M55 0V-546H195V-465Q213 -509 245 -528Q286 -552 343 -552H375V-422H328Q273 -422 239 -388Q205 -355 205 -294V0Z"/><path id="body8-f" d="M121 0V-416H29V-546H121V-554Q121 -619 146 -664Q172 -709 220 -733Q268 -757 336 -757Q349 -757 364 -756Q379 -754 389 -752V-624Q379 -626 372 -626Q364 -627 356 -627Q314 -627 292 -608Q271 -590 271 -554V-546H388V-416H271V0Z"/><path id="body8-c" d="M323 12Q241 12 176 -26Q110 -63 72 -128Q33 -193 33 -274Q33 -355 71 -420Q109 -484 175 -521Q241 -558 323 -558Q384 -558 436 -537Q488 -516 525 -478Q562 -441 578 -390L448 -334Q434 -375 400 -399Q367 -423 323 -423Q284 -423 254 -404Q223 -385 206 -351Q188 -317 188 -273Q188 -229 206 -195Q223 -161 254 -142Q284 -123 323 -123Q368 -123 401 -147Q434 -171 448 -212L578 -155Q563 -107 526 -69Q489 -31 437 -10Q385 12 323 12Z"/><pattern id="dots" width="22" height="22" patternUnits="userSpaceOnUse"><circle cx="2" cy="2" r="1.6" fill="#FAF7F2" fill-opacity="0.07"/></pattern></defs><rect x="22" y="22" width="1164" height="414" rx="24" fill="#7C3AED"/><rect x="12" y="12" width="1164" height="414" rx="24" fill="#1C1B2E" stroke="#FAF7F2" stroke-width="3"/><rect x="14" y="14" width="1160" height="410" rx="22" fill="url(#dots)"/><g transform="translate(66 58) rotate(-3)"><rect x="4" y="4" width="146.4" height="40" rx="20" fill="#7C3AED"/><rect x="0" y="0" width="146.4" height="40" rx="20" fill="#A78BFA" stroke="#FAF7F2" stroke-width="2.5"/><g fill="#1C1B2E" transform="translate(20 26.5) scale(0.01700)"><use href="#body8-H"/><use href="#body8-A" x="885"/><use href="#body8-L" x="1770"/><use href="#body8-O" x="2450"/><use href="#body8-exclam" x="3481"/><use href="#body8-I" x="4367"/><use href="#body8-quoteright" x="4807"/><use href="#body8-M" x="5346"/></g></g><g fill="#FAF7F2" transform="translate(62 200) scale(0.10000)"><use href="#display-T"/><use href="#display-e" x="487"/><use href="#display-g" x="1049"/><use href="#display-a" x="1628"/><use href="#display-r" x="2198"/><use href="#display-P" x="2817"/><use href="#display-r" x="3440"/><use href="#display-a" x="3853"/><use href="#display-y" x="4423"/><use href="#display-u" x="5008"/><use href="#display-d" x="5617"/><use href="#display-a" x="6241"/></g><path d="M347.7 222 Q372.3 214 396.9 222 Q421.6 230 446.2 222 Q470.8 214 495.4 222 Q520 230 544.6 222 Q569.3 214 593.9 222 Q618.5 230 643.1 222 Q667.7 214 692.4 222 Q717 230 741.6 222" fill="none" stroke="#A78BFA" stroke-width="7" stroke-linecap="round" pathLength="1" stroke-dasharray="1" stroke-dashoffset="0"><animate attributeName="stroke-dashoffset" values="1;1;0" keyTimes="0;0.35;1" dur="1.4s" calcMode="spline" keySplines="0 0 1 1;.3 .7 .4 1" fill="freeze"/></path><g transform="rotate(-1.5 66 290)"><rect x="59" y="254" width="297.4" height="54" rx="10" fill="#7C3AED"><animate attributeName="width" values="0;53.3;80.4;92.4;119.6;148.4;167.9;193.9;222.5;248.7;276.9;297.4;276.9;248.7;222.5;193.9;167.9;148.4;119.6;92.4;80.4;53.3;0;0;53.3;79.5;105.7;135;144.2;175;203.2;215.4;227.4;256.2;282.2;302.8;282.2;256.2;227.4;215.4;203.2;175;144.2;135;105.7;79.5;53.3;0;0;55.8;68.7;84.2;119.4;145.8;163.5;175.6;201;227;236.3;263.8;292.4;319.3;331.4;360;386.3;412.3;432.8;412.3;386.3;360;331.4;319.3;292.4;263.8;236.3;227;201;175.6;163.5;145.8;119.4;84.2;68.7;55.8;0;0;36.9;65.5;94.4;106.5;132.5;141.8;174.2;200.6;225.9;252.2;278.2;298.8;278.2;252.2;225.9;200.6;174.2;141.8;132.5;106.5;94.4;65.5;36.9;0;0;54.4;66.5;95.3;121.3;130.6;161.1;188.3;217.1;243.1;263.6;243.1;217.1;188.3;161.1;130.6;121.3;95.3;66.5;54.4;0;0;55.4;74.9;100.9;127.3;170.6;196.6;217.1;196.6;170.6;127.3;100.9;74.9;55.4;0" keyTimes="0;0.0234;0.0271;0.0308;0.0345;0.0382;0.0418;0.0455;0.0492;0.0529;0.0566;0.0603;0.1440;0.1457;0.1473;0.1490;0.1506;0.1523;0.1540;0.1556;0.1573;0.1590;0.1606;0.1795;0.1832;0.1869;0.1906;0.1943;0.1980;0.2017;0.2054;0.2090;0.2127;0.2164;0.2201;0.2238;0.3075;0.3092;0.3108;0.3125;0.3142;0.3158;0.3175;0.3191;0.3208;0.3225;0.3241;0.3258;0.3447;0.3484;0.3521;0.3558;0.3594;0.3631;0.3668;0.3705;0.3742;0.3779;0.3816;0.3853;0.3890;0.3927;0.3964;0.4001;0.4038;0.4074;0.4111;0.4948;0.4965;0.4982;0.4998;0.5015;0.5031;0.5048;0.5065;0.5081;0.5098;0.5114;0.5131;0.5148;0.5164;0.5181;0.5198;0.5214;0.5231;0.5420;0.5457;0.5494;0.5530;0.5567;0.5604;0.5641;0.5678;0.5715;0.5752;0.5789;0.5826;0.5863;0.6700;0.6716;0.6733;0.6750;0.6766;0.6783;0.6799;0.6816;0.6833;0.6849;0.6866;0.6882;0.7071;0.7108;0.7145;0.7182;0.7219;0.7256;0.7293;0.7330;0.7367;0.7404;0.7441;0.8278;0.8294;0.8311;0.8327;0.8344;0.8361;0.8377;0.8394;0.8410;0.8427;0.8616;0.8653;0.8690;0.8727;0.8764;0.8801;0.8838;0.8874;0.9711;0.9728;0.9745;0.9761;0.9778;0.9794;0.9811" calcMode="discrete" dur="20.31s" repeatCount="indefinite"/></rect><rect x="54" y="249" width="297.4" height="54" rx="10" fill="#FFD23F" stroke="#FAF7F2" stroke-width="2.6"><animate attributeName="width" values="0;53.3;80.4;92.4;119.6;148.4;167.9;193.9;222.5;248.7;276.9;297.4;276.9;248.7;222.5;193.9;167.9;148.4;119.6;92.4;80.4;53.3;0;0;53.3;79.5;105.7;135;144.2;175;203.2;215.4;227.4;256.2;282.2;302.8;282.2;256.2;227.4;215.4;203.2;175;144.2;135;105.7;79.5;53.3;0;0;55.8;68.7;84.2;119.4;145.8;163.5;175.6;201;227;236.3;263.8;292.4;319.3;331.4;360;386.3;412.3;432.8;412.3;386.3;360;331.4;319.3;292.4;263.8;236.3;227;201;175.6;163.5;145.8;119.4;84.2;68.7;55.8;0;0;36.9;65.5;94.4;106.5;132.5;141.8;174.2;200.6;225.9;252.2;278.2;298.8;278.2;252.2;225.9;200.6;174.2;141.8;132.5;106.5;94.4;65.5;36.9;0;0;54.4;66.5;95.3;121.3;130.6;161.1;188.3;217.1;243.1;263.6;243.1;217.1;188.3;161.1;130.6;121.3;95.3;66.5;54.4;0;0;55.4;74.9;100.9;127.3;170.6;196.6;217.1;196.6;170.6;127.3;100.9;74.9;55.4;0" keyTimes="0;0.0234;0.0271;0.0308;0.0345;0.0382;0.0418;0.0455;0.0492;0.0529;0.0566;0.0603;0.1440;0.1457;0.1473;0.1490;0.1506;0.1523;0.1540;0.1556;0.1573;0.1590;0.1606;0.1795;0.1832;0.1869;0.1906;0.1943;0.1980;0.2017;0.2054;0.2090;0.2127;0.2164;0.2201;0.2238;0.3075;0.3092;0.3108;0.3125;0.3142;0.3158;0.3175;0.3191;0.3208;0.3225;0.3241;0.3258;0.3447;0.3484;0.3521;0.3558;0.3594;0.3631;0.3668;0.3705;0.3742;0.3779;0.3816;0.3853;0.3890;0.3927;0.3964;0.4001;0.4038;0.4074;0.4111;0.4948;0.4965;0.4982;0.4998;0.5015;0.5031;0.5048;0.5065;0.5081;0.5098;0.5114;0.5131;0.5148;0.5164;0.5181;0.5198;0.5214;0.5231;0.5420;0.5457;0.5494;0.5530;0.5567;0.5604;0.5641;0.5678;0.5715;0.5752;0.5789;0.5826;0.5863;0.6700;0.6716;0.6733;0.6750;0.6766;0.6783;0.6799;0.6816;0.6833;0.6849;0.6866;0.6882;0.7071;0.7108;0.7145;0.7182;0.7219;0.7256;0.7293;0.7330;0.7367;0.7404;0.7441;0.8278;0.8294;0.8311;0.8327;0.8344;0.8361;0.8377;0.8394;0.8410;0.8427;0.8616;0.8653;0.8690;0.8727;0.8764;0.8801;0.8838;0.8874;0.9711;0.9728;0.9745;0.9761;0.9778;0.9794;0.9811" calcMode="discrete" dur="20.31s" repeatCount="indefinite"/></rect></g><g fill="#1C1B2E" transform="translate(66 290) scale(0.04600)"><use href="#display-S"><animate attributeName="opacity" values="0;1;0" keyTimes="0;0.0234;0.1606" calcMode="discrete" dur="20.31s" repeatCount="indefinite"/></use><use href="#display-o" x="636"><animate attributeName="opacity" values="0;1;0" keyTimes="0;0.0271;0.1590" calcMode="discrete" dur="20.31s" repeatCount="indefinite"/></use><use href="#display-l" x="1227"><animate attributeName="opacity" values="0;1;0" keyTimes="0;0.0308;0.1573" calcMode="discrete" dur="20.31s" repeatCount="indefinite"/></use><use href="#display-o" x="1488"><animate attributeName="opacity" values="0;1;0" keyTimes="0;0.0345;0.1556" calcMode="discrete" dur="20.31s" repeatCount="indefinite"/></use><use href="#display-p" x="2078"><animate attributeName="opacity" values="0;1;0" keyTimes="0;0.0382;0.1540" calcMode="discrete" dur="20.31s" repeatCount="indefinite"/></use><use href="#display-r" x="2704"><animate attributeName="opacity" values="0;1;0" keyTimes="0;0.0418;0.1523" calcMode="discrete" dur="20.31s" repeatCount="indefinite"/></use><use href="#display-e" x="3129"><animate attributeName="opacity" values="0;1;0" keyTimes="0;0.0455;0.1506" calcMode="discrete" dur="20.31s" repeatCount="indefinite"/></use><use href="#display-n" x="3694"><animate attributeName="opacity" values="0;1;0" keyTimes="0;0.0492;0.1490" calcMode="discrete" dur="20.31s" repeatCount="indefinite"/></use><use href="#display-e" x="4315"><animate attributeName="opacity" values="0;1;0" keyTimes="0;0.0529;0.1473" calcMode="discrete" dur="20.31s" repeatCount="indefinite"/></use><use href="#display-u" x="4885"><animate attributeName="opacity" values="0;1;0" keyTimes="0;0.0566;0.1457" calcMode="discrete" dur="20.31s" repeatCount="indefinite"/></use><use href="#display-r" x="5498"><animate attributeName="opacity" values="0;1;0" keyTimes="0;0.0603;0.1440" calcMode="discrete" dur="20.31s" repeatCount="indefinite"/></use></g><g opacity="0"><set attributeName="opacity" to="1" begin="0s"/><g fill="#1C1B2E" transform="translate(66 290) scale(0.04600)"><use href="#display-S"><animate attributeName="opacity" values="0;1;0" keyTimes="0;0.1832;0.3258" calcMode="discrete" dur="20.31s" repeatCount="indefinite"/></use><use href="#display-a" x="636"><animate attributeName="opacity" values="0;1;0" keyTimes="0;0.1869;0.3241" calcMode="discrete" dur="20.31s" repeatCount="indefinite"/></use><use href="#display-a" x="1208"><animate attributeName="opacity" values="0;1;0" keyTimes="0;0.1906;0.3225" calcMode="discrete" dur="20.31s" repeatCount="indefinite"/></use><use href="#display-S" x="1776"><animate attributeName="opacity" values="0;1;0" keyTimes="0;0.1943;0.3208" calcMode="discrete" dur="20.31s" repeatCount="indefinite"/></use><use href="#display-B" x="2613"><animate attributeName="opacity" values="0;1;0" keyTimes="0;0.2017;0.3175" calcMode="discrete" dur="20.31s" repeatCount="indefinite"/></use><use href="#display-u" x="3284"><animate attributeName="opacity" values="0;1;0" keyTimes="0;0.2054;0.3158" calcMode="discrete" dur="20.31s" repeatCount="indefinite"/></use><use href="#display-i" x="3896"><animate attributeName="opacity" values="0;1;0" keyTimes="0;0.2090;0.3142" calcMode="discrete" dur="20.31s" repeatCount="indefinite"/></use><use href="#display-l" x="4160"><animate attributeName="opacity" values="0;1;0" keyTimes="0;0.2127;0.3125" calcMode="discrete" dur="20.31s" repeatCount="indefinite"/></use><use href="#display-d" x="4421"><animate attributeName="opacity" values="0;1;0" keyTimes="0;0.2164;0.3108" calcMode="discrete" dur="20.31s" repeatCount="indefinite"/></use><use href="#display-e" x="5049"><animate attributeName="opacity" values="0;1;0" keyTimes="0;0.2201;0.3092" calcMode="discrete" dur="20.31s" repeatCount="indefinite"/></use><use href="#display-r" x="5614"><animate attributeName="opacity" values="0;1;0" keyTimes="0;0.2238;0.3075" calcMode="discrete" dur="20.31s" repeatCount="indefinite"/></use></g></g><g opacity="0"><set attributeName="opacity" to="1" begin="0s"/><g fill="#1C1B2E" transform="translate(66 290) scale(0.04600)"><use href="#display-A"><animate attributeName="opacity" values="0;1;0" keyTimes="0;0.3484;0.5231" calcMode="discrete" dur="20.31s" repeatCount="indefinite"/></use><use href="#display-I" x="690"><animate attributeName="opacity" values="0;1;0" keyTimes="0;0.3521;0.5214" calcMode="discrete" dur="20.31s" repeatCount="indefinite"/></use><use href="#display-hyphen" x="972"><animate attributeName="opacity" values="0;1;0" keyTimes="0;0.3558;0.5198" calcMode="discrete" dur="20.31s" repeatCount="indefinite"/></use><use href="#display-N" x="1309"><animate attributeName="opacity" values="0;1;0" keyTimes="0;0.3594;0.5181" calcMode="discrete" dur="20.31s" repeatCount="indefinite"/></use><use href="#display-a" x="2074"><animate attributeName="opacity" values="0;1;0" keyTimes="0;0.3631;0.5164" calcMode="discrete" dur="20.31s" repeatCount="indefinite"/></use><use href="#display-t" x="2647"><animate attributeName="opacity" values="0;1;0" keyTimes="0;0.3668;0.5148" calcMode="discrete" dur="20.31s" repeatCount="indefinite"/></use><use href="#display-i" x="3032"><animate attributeName="opacity" values="0;1;0" keyTimes="0;0.3705;0.5131" calcMode="discrete" dur="20.31s" repeatCount="indefinite"/></use><use href="#display-v" x="3296"><animate attributeName="opacity" values="0;1;0" keyTimes="0;0.3742;0.5114" calcMode="discrete" dur="20.31s" repeatCount="indefinite"/></use><use href="#display-e" x="3848"><animate attributeName="opacity" values="0;1;0" keyTimes="0;0.3779;0.5098" calcMode="discrete" dur="20.31s" repeatCount="indefinite"/></use><use href="#display-E" x="4615"><animate attributeName="opacity" values="0;1;0" keyTimes="0;0.3853;0.5065" calcMode="discrete" dur="20.31s" repeatCount="indefinite"/></use><use href="#display-n" x="5213"><animate attributeName="opacity" values="0;1;0" keyTimes="0;0.3890;0.5048" calcMode="discrete" dur="20.31s" repeatCount="indefinite"/></use><use href="#display-g" x="5834"><animate attributeName="opacity" values="0;1;0" keyTimes="0;0.3927;0.5031" calcMode="discrete" dur="20.31s" repeatCount="indefinite"/></use><use href="#display-i" x="6419"><animate attributeName="opacity" values="0;1;0" keyTimes="0;0.3964;0.5015" calcMode="discrete" dur="20.31s" repeatCount="indefinite"/></use><use href="#display-n" x="6684"><animate attributeName="opacity" values="0;1;0" keyTimes="0;0.4001;0.4998" calcMode="discrete" dur="20.31s" repeatCount="indefinite"/></use><use href="#display-e" x="7305"><animate attributeName="opacity" values="0;1;0" keyTimes="0;0.4038;0.4982" calcMode="discrete" dur="20.31s" repeatCount="indefinite"/></use><use href="#display-e" x="7876"><animate attributeName="opacity" values="0;1;0" keyTimes="0;0.4074;0.4965" calcMode="discrete" dur="20.31s" repeatCount="indefinite"/></use><use href="#display-r" x="8441"><animate attributeName="opacity" values="0;1;0" keyTimes="0;0.4111;0.4948" calcMode="discrete" dur="20.31s" repeatCount="indefinite"/></use></g></g><g opacity="0"><set attributeName="opacity" to="1" begin="0s"/><g fill="#1C1B2E" transform="translate(66 290) scale(0.04600)"><use href="#display-I"><animate attributeName="opacity" values="0;1;0" keyTimes="0;0.5457;0.6882" calcMode="discrete" dur="20.31s" repeatCount="indefinite"/></use><use href="#display-n" x="281"><animate attributeName="opacity" values="0;1;0" keyTimes="0;0.5494;0.6866" calcMode="discrete" dur="20.31s" repeatCount="indefinite"/></use><use href="#display-d" x="903"><animate attributeName="opacity" values="0;1;0" keyTimes="0;0.5530;0.6849" calcMode="discrete" dur="20.31s" repeatCount="indefinite"/></use><use href="#display-i" x="1530"><animate attributeName="opacity" values="0;1;0" keyTimes="0;0.5567;0.6833" calcMode="discrete" dur="20.31s" repeatCount="indefinite"/></use><use href="#display-e" x="1794"><animate attributeName="opacity" values="0;1;0" keyTimes="0;0.5604;0.6816" calcMode="discrete" dur="20.31s" repeatCount="indefinite"/></use><use href="#display-H" x="2561"><animate attributeName="opacity" values="0;1;0" keyTimes="0;0.5678;0.6783" calcMode="discrete" dur="20.31s" repeatCount="indefinite"/></use><use href="#display-a" x="3266"><animate attributeName="opacity" values="0;1;0" keyTimes="0;0.5715;0.6766" calcMode="discrete" dur="20.31s" repeatCount="indefinite"/></use><use href="#display-c" x="3839"><animate attributeName="opacity" values="0;1;0" keyTimes="0;0.5752;0.6750" calcMode="discrete" dur="20.31s" repeatCount="indefinite"/></use><use href="#display-k" x="4388"><animate attributeName="opacity" values="0;1;0" keyTimes="0;0.5789;0.6733" calcMode="discrete" dur="20.31s" repeatCount="indefinite"/></use><use href="#display-e" x="4962"><animate attributeName="opacity" values="0;1;0" keyTimes="0;0.5826;0.6716" calcMode="discrete" dur="20.31s" repeatCount="indefinite"/></use><use href="#display-r" x="5527"><animate attributeName="opacity" values="0;1;0" keyTimes="0;0.5863;0.6700" calcMode="discrete" dur="20.31s" repeatCount="indefinite"/></use></g></g><g opacity="0"><set attributeName="opacity" to="1" begin="0s"/><g fill="#1C1B2E" transform="translate(66 290) scale(0.04600)"><use href="#display-V"><animate attributeName="opacity" values="0;1;0" keyTimes="0;0.7108;0.8427" calcMode="discrete" dur="20.31s" repeatCount="indefinite"/></use><use href="#display-i" x="660"><animate attributeName="opacity" values="0;1;0" keyTimes="0;0.7145;0.8410" calcMode="discrete" dur="20.31s" repeatCount="indefinite"/></use><use href="#display-b" x="925"><animate attributeName="opacity" values="0;1;0" keyTimes="0;0.7182;0.8394" calcMode="discrete" dur="20.31s" repeatCount="indefinite"/></use><use href="#display-e" x="1551"><animate attributeName="opacity" values="0;1;0" keyTimes="0;0.7219;0.8377" calcMode="discrete" dur="20.31s" repeatCount="indefinite"/></use><use href="#display-C" x="2317"><animate attributeName="opacity" values="0;1;0" keyTimes="0;0.7293;0.8344" calcMode="discrete" dur="20.31s" repeatCount="indefinite"/></use><use href="#display-o" x="2981"><animate attributeName="opacity" values="0;1;0" keyTimes="0;0.7330;0.8327" calcMode="discrete" dur="20.31s" repeatCount="indefinite"/></use><use href="#display-d" x="3571"><animate attributeName="opacity" values="0;1;0" keyTimes="0;0.7367;0.8311" calcMode="discrete" dur="20.31s" repeatCount="indefinite"/></use><use href="#display-e" x="4198"><animate attributeName="opacity" values="0;1;0" keyTimes="0;0.7404;0.8294" calcMode="discrete" dur="20.31s" repeatCount="indefinite"/></use><use href="#display-r" x="4763"><animate attributeName="opacity" values="0;1;0" keyTimes="0;0.7441;0.8278" calcMode="discrete" dur="20.31s" repeatCount="indefinite"/></use></g></g><g opacity="0"><set attributeName="opacity" to="1" begin="0s"/><g fill="#1C1B2E" transform="translate(66 290) scale(0.04600)"><use href="#display-D"><animate attributeName="opacity" values="0;1;0" keyTimes="0;0.8653;0.9811" calcMode="discrete" dur="20.31s" repeatCount="indefinite"/></use><use href="#display-r" x="683"><animate attributeName="opacity" values="0;1;0" keyTimes="0;0.8690;0.9794" calcMode="discrete" dur="20.31s" repeatCount="indefinite"/></use><use href="#display-e" x="1108"><animate attributeName="opacity" values="0;1;0" keyTimes="0;0.8727;0.9778" calcMode="discrete" dur="20.31s" repeatCount="indefinite"/></use><use href="#display-a" x="1673"><animate attributeName="opacity" values="0;1;0" keyTimes="0;0.8764;0.9761" calcMode="discrete" dur="20.31s" repeatCount="indefinite"/></use><use href="#display-m" x="2246"><animate attributeName="opacity" values="0;1;0" keyTimes="0;0.8801;0.9745" calcMode="discrete" dur="20.31s" repeatCount="indefinite"/></use><use href="#display-e" x="3187"><animate attributeName="opacity" values="0;1;0" keyTimes="0;0.8838;0.9728" calcMode="discrete" dur="20.31s" repeatCount="indefinite"/></use><use href="#display-r" x="3753"><animate attributeName="opacity" values="0;1;0" keyTimes="0;0.8874;0.9711" calcMode="discrete" dur="20.31s" repeatCount="indefinite"/></use></g></g><rect x="355.4" y="252" width="5" height="48" rx="2" fill="#A78BFA"><animate attributeName="x" values="82;111.3;138.4;150.4;177.6;206.4;225.9;251.9;280.5;306.7;334.9;355.4;334.9;306.7;280.5;251.9;225.9;206.4;177.6;150.4;138.4;111.3;82;82;111.3;137.5;163.7;193;202.2;233;261.2;273.4;285.4;314.2;340.2;360.8;340.2;314.2;285.4;273.4;261.2;233;202.2;193;163.7;137.5;111.3;82;82;113.8;126.7;142.2;177.4;203.8;221.5;233.6;259;285;294.3;321.8;350.4;377.3;389.4;418;444.3;470.3;490.8;470.3;444.3;418;389.4;377.3;350.4;321.8;294.3;285;259;233.6;221.5;203.8;177.4;142.2;126.7;113.8;82;82;94.9;123.5;152.4;164.5;190.5;199.8;232.2;258.6;283.9;310.2;336.2;356.8;336.2;310.2;283.9;258.6;232.2;199.8;190.5;164.5;152.4;123.5;94.9;82;82;112.4;124.5;153.3;179.3;188.6;219.1;246.3;275.1;301.1;321.6;301.1;275.1;246.3;219.1;188.6;179.3;153.3;124.5;112.4;82;82;113.4;132.9;158.9;185.3;228.6;254.6;275.1;254.6;228.6;185.3;158.9;132.9;113.4;82" keyTimes="0;0.0234;0.0271;0.0308;0.0345;0.0382;0.0418;0.0455;0.0492;0.0529;0.0566;0.0603;0.1440;0.1457;0.1473;0.1490;0.1506;0.1523;0.1540;0.1556;0.1573;0.1590;0.1606;0.1795;0.1832;0.1869;0.1906;0.1943;0.1980;0.2017;0.2054;0.2090;0.2127;0.2164;0.2201;0.2238;0.3075;0.3092;0.3108;0.3125;0.3142;0.3158;0.3175;0.3191;0.3208;0.3225;0.3241;0.3258;0.3447;0.3484;0.3521;0.3558;0.3594;0.3631;0.3668;0.3705;0.3742;0.3779;0.3816;0.3853;0.3890;0.3927;0.3964;0.4001;0.4038;0.4074;0.4111;0.4948;0.4965;0.4982;0.4998;0.5015;0.5031;0.5048;0.5065;0.5081;0.5098;0.5114;0.5131;0.5148;0.5164;0.5181;0.5198;0.5214;0.5231;0.5420;0.5457;0.5494;0.5530;0.5567;0.5604;0.5641;0.5678;0.5715;0.5752;0.5789;0.5826;0.5863;0.6700;0.6716;0.6733;0.6750;0.6766;0.6783;0.6799;0.6816;0.6833;0.6849;0.6866;0.6882;0.7071;0.7108;0.7145;0.7182;0.7219;0.7256;0.7293;0.7330;0.7367;0.7404;0.7441;0.8278;0.8294;0.8311;0.8327;0.8344;0.8361;0.8377;0.8394;0.8410;0.8427;0.8616;0.8653;0.8690;0.8727;0.8764;0.8801;0.8838;0.8874;0.9711;0.9728;0.9745;0.9761;0.9778;0.9794;0.9811" calcMode="discrete" dur="20.31s" repeatCount="indefinite"/><animate attributeName="opacity" values="1;0" keyTimes="0;0.5" calcMode="discrete" dur="1.05s" repeatCount="indefinite"/></rect><g fill="#BDB9D3" transform="translate(66 344) scale(0.02100)"><use href="#body5-I"/><use href="#body5-b" x="437"/><use href="#body5-u" x="1106"/><use href="#body5-i" x="1686"/><use href="#body5-l" x="1923"/><use href="#body5-d" x="2160"/><use href="#body5-a" x="3002"/><use href="#body5-n" x="3577"/><use href="#body5-y" x="4147"/><use href="#body5-t" x="4700"/><use href="#body5-h" x="5096"/><use href="#body5-i" x="5676"/><use href="#body5-n" x="5913"/><use href="#body5-g" x="6493"/><use href="#body5-o" x="7325"/><use href="#body5-n" x="7979"/><use href="#body5-t" x="8732"/><use href="#body5-h" x="9128"/><use href="#body5-e" x="9708"/><use href="#body5-i" x="10495"/><use href="#body5-n" x="10732"/><use href="#body5-t" x="11312"/><use href="#body5-e" x="11693"/><use href="#body5-r" x="12307"/><use href="#body5-n" x="12657"/><use href="#body5-e" x="13237"/><use href="#body5-t" x="13851"/><use href="#body5-colon" x="14247"/><use href="#body5-s" x="14737"/><use href="#body5-o" x="15248"/><use href="#body5-l" x="15902"/><use href="#body5-o" x="16139"/><use href="#body5-comma" x="16793"/><use href="#body5-A" x="17265"/><use href="#body5-I" x="17937"/><use href="#body5-hyphen" x="18201"/><use href="#body5-n" x="18733"/><use href="#body5-a" x="19313"/><use href="#body5-t" x="19878"/><use href="#body5-i" x="20274"/><use href="#body5-v" x="20511"/><use href="#body5-e" x="21034"/><use href="#body5-comma" x="21648"/><use href="#body5-a" x="22120"/><use href="#body5-n" x="22695"/><use href="#body5-d" x="23275"/><use href="#body5-a" x="24117"/><use href="#body5-c" x="24692"/><use href="#body5-t" x="25295"/><use href="#body5-u" x="25691"/><use href="#body5-a" x="26271"/><use href="#body5-l" x="26846"/><use href="#body5-l" x="27083"/><use href="#body5-y" x="27320"/><use href="#body5-s" x="28046"/><use href="#body5-h" x="28557"/><use href="#body5-i" x="29137"/><use href="#body5-p" x="29374"/><use href="#body5-p" x="30043"/><use href="#body5-e" x="30712"/><use href="#body5-d" x="31326"/><use href="#body5-period" x="31995"/></g><rect x="69.5" y="373.5" width="194.2" height="38" rx="19" fill="#7C3AED"/><rect x="66" y="370" width="194.2" height="38" rx="19" fill="#262539" stroke="#FAF7F2" stroke-width="2.2"/><g transform="translate(90 388.5)"><path fill="#A78BFA" d="M0-9C-5-9-8-5.5-8-1.6-8 3.6 0 11 0 11S8 3.6 8-1.6C8-5.5 5-9 0-9Z"/><circle cy="-1.8" r="3" fill="#FFFFFF"/></g><g fill="#FAF7F2" transform="translate(108 394.5) scale(0.01600)"><use href="#body7-B"/><use href="#body7-o" x="691"/><use href="#body7-g" x="1343"/><use href="#body7-o" x="1995"/><use href="#body7-r" x="2647"/><use href="#body7-comma" x="2981"/><use href="#body7-I" x="3516"/><use href="#body7-n" x="3795"/><use href="#body7-d" x="4388"/><use href="#body7-o" x="5060"/><use href="#body7-n" x="5712"/><use href="#body7-e" x="6305"/><use href="#body7-s" x="6917"/><use href="#body7-i" x="7431"/><use href="#body7-a" x="7683"/></g><rect x="279.7" y="373.5" width="209.9" height="38" rx="19" fill="#7C3AED"/><rect x="276.2" y="370" width="209.9" height="38" rx="19" fill="#262539" stroke="#FAF7F2" stroke-width="2.2"/><g transform="translate(300.2 389)" fill="none" stroke="#A78BFA" stroke-width="2.6" stroke-linecap="round"><circle r="8.5"/><path d="M-8.5 0H8.5M0-8.5C4-4 4 4 0 8.5M0-8.5C-4-4-4 4 0 8.5"/></g><g fill="#FAF7F2" transform="translate(318.2 394.5) scale(0.01600)"><use href="#body7-t"/><use href="#body7-e" x="408"/><use href="#body7-g" x="1020"/><use href="#body7-a" x="1672"/><use href="#body7-r" x="2252"/><use href="#body7-p" x="2626"/><use href="#body7-r" x="3298"/><use href="#body7-a" x="3672"/><use href="#body7-y" x="4252"/><use href="#body7-u" x="4838"/><use href="#body7-d" x="5431"/><use href="#body7-a" x="6103"/><use href="#body7-period" x="6683"/><use href="#body7-c" x="7061"/><use href="#body7-o" x="7669"/><use href="#body7-m" x="8321"/></g><rect x="505.6" y="373.5" width="185.2" height="38" rx="19" fill="#7C3AED"/><rect x="502.1" y="370" width="185.2" height="38" rx="19" fill="#262539" stroke="#FAF7F2" stroke-width="2.2"/><g transform="translate(526.1 389)"><circle r="9" fill="#22C55E" fill-opacity="0.35"><animate attributeName="r" values="5;10;5" dur="2s" repeatCount="indefinite"/><animate attributeName="fill-opacity" values="0.45;0;0.45" dur="2s" repeatCount="indefinite"/></circle><circle r="5" fill="#22C55E"/></g><g fill="#FAF7F2" transform="translate(544.1 394.5) scale(0.01600)"><use href="#body7-O"/><use href="#body7-p" x="878"/><use href="#body7-e" x="1550"/><use href="#body7-n" x="2162"/><use href="#body7-t" x="2933"/><use href="#body7-o" x="3341"/><use href="#body7-c" x="4171"/><use href="#body7-o" x="4779"/><use href="#body7-l" x="5431"/><use href="#body7-l" x="5683"/><use href="#body7-a" x="5935"/><use href="#body7-b" x="6515"/><use href="#body7-s" x="7187"/></g><circle cx="1039" cy="157" r="104" fill="#7C3AED"/><circle cx="1032" cy="150" r="104" fill="#A78BFA" stroke="#FAF7F2" stroke-width="3"/><g fill="#1C1B2E"><use href="#body8-S" transform="translate(1037.5 70.2) rotate(3.9) translate(-5.5 6.1) scale(0.01700)"/><use href="#body8-O" transform="translate(1052.4 72.7) rotate(14.8) translate(-7.5 6.1) scale(0.01700)"/><use href="#body8-L" transform="translate(1065.7 77.5) rotate(24.9) translate(-4.5 6.1) scale(0.01700)"/><use href="#body8-O" transform="translate(1077.9 84.5) rotate(35.1) translate(-7.5 6.1) scale(0.01700)"/><use href="#body8-P" transform="translate(1089.5 94.4) rotate(45.9) translate(-5.5 6.1) scale(0.01700)"/><use href="#body8-R" transform="translate(1097.9 104.7) rotate(55.5) translate(-5.7 6.1) scale(0.01700)"/><use href="#body8-E" transform="translate(1104.3 115.9) rotate(64.7) translate(-5 6.1) scale(0.01700)"/><use href="#body8-N" transform="translate(1109.1 128.5) rotate(74.4) translate(-6.3 6.1) scale(0.01700)"/><use href="#body8-E" transform="translate(1111.6 141.8) rotate(84.1) translate(-5 6.1) scale(0.01700)"/><use href="#body8-U" transform="translate(1111.8 155.1) rotate(93.7) translate(-6.2 6.1) scale(0.01700)"/><use href="#body8-R" transform="translate(1109.7 169) rotate(103.7) translate(-5.7 6.1) scale(0.01700)"/><path transform="translate(1104.3 184.2)" fill="#1C1B2E" d="M0 -7C1.26 -1.26 1.26 -1.26 7 0C1.26 1.26 1.26 1.26 0 7C-1.26 1.26 -1.26 1.26 -7 0C-1.26 -1.26 -1.26 -1.26 0 -7Z"/><use href="#body8-S" transform="translate(1096.1 197.9) rotate(126.8) translate(-5.4 6.1) scale(0.01700)"/><use href="#body8-A" transform="translate(1086.9 208.2) rotate(136.7) translate(-6.2 6.1) scale(0.01700)"/><use href="#body8-A" transform="translate(1075.4 217.2) rotate(147.1) translate(-6.1 6.1) scale(0.01700)"/><use href="#body8-S" transform="translate(1063.2 223.7) rotate(157.1) translate(-5.5 6.1) scale(0.01700)"/><use href="#body8-B" transform="translate(1045.2 228.9) rotate(170.5) translate(-5.9 6.1) scale(0.01700)"/><use href="#body8-U" transform="translate(1031 230) rotate(180.7) translate(-6.2 6.1) scale(0.01700)"/><use href="#body8-I" transform="translate(1020.2 229.1) rotate(188.4) translate(-2.4 6.1) scale(0.01700)"/><use href="#body8-L" transform="translate(1011.2 227.2) rotate(195.1) translate(-4.6 6.1) scale(0.01700)"/><use href="#body8-D" transform="translate(998.8 222.8) rotate(204.5) translate(-6.3 6.1) scale(0.01700)"/><use href="#body8-E" transform="translate(987.1 216.2) rotate(214.2) translate(-5 6.1) scale(0.01700)"/><use href="#body8-R" transform="translate(977 208.1) rotate(223.4) translate(-5.7 6.1) scale(0.01700)"/><path transform="translate(966.4 195.9)" fill="#1C1B2E" d="M0 -7C1.26 -1.26 1.26 -1.26 7 0C1.26 1.26 1.26 1.26 0 7C-1.26 1.26 -1.26 1.26 -7 0C-1.26 -1.26 -1.26 -1.26 0 -7Z"/><use href="#body8-I" transform="translate(959.9 184.6) rotate(244.4) translate(-2.4 6.1) scale(0.01700)"/><use href="#body8-N" transform="translate(955.8 174.5) rotate(252.2) translate(-6.3 6.1) scale(0.01700)"/><use href="#body8-D" transform="translate(952.6 160) rotate(262.8) translate(-6.3 6.1) scale(0.01700)"/><use href="#body8-I" transform="translate(952 149.2) rotate(270.6) translate(-2.4 6.1) scale(0.01700)"/><use href="#body8-E" transform="translate(952.7 139.5) rotate(277.5) translate(-5 6.1) scale(0.01700)"/><use href="#body8-H" transform="translate(957.3 121.5) rotate(290.9) translate(-6.2 6.1) scale(0.01700)"/><use href="#body8-A" transform="translate(963.6 108.6) rotate(301.2) translate(-6 6.1) scale(0.01700)"/><use href="#body8-C" transform="translate(972.3 96.7) rotate(311.8) translate(-6.6 6.1) scale(0.01700)"/><use href="#body8-K" transform="translate(983 86.8) rotate(322.2) translate(-5.8 6.1) scale(0.01700)"/><use href="#body8-E" transform="translate(993.9 79.7) rotate(331.6) translate(-5 6.1) scale(0.01700)"/><use href="#body8-R" transform="translate(1005.7 74.5) rotate(340.8) translate(-5.7 6.1) scale(0.01700)"/><path transform="translate(1021.4 70.7)" fill="#1C1B2E" d="M0 -7C1.26 -1.26 1.26 -1.26 7 0C1.26 1.26 1.26 1.26 0 7C-1.26 1.26 -1.26 1.26 -7 0C-1.26 -1.26 -1.26 -1.26 0 -7Z"/><animateTransform attributeName="transform" type="rotate" from="0 1032 150" to="360 1032 150" dur="26s" repeatCount="indefinite"/></g><circle cx="1032" cy="150" r="52" fill="#FFD23F" stroke="#FAF7F2" stroke-width="3"/><g transform="translate(1032 150)"><g><path transform="translate(0 0) scale(1.05)" fill="#1C1B2E" stroke="#1C1B2E" stroke-width="2.29" stroke-linejoin="round" d="M4-26-14 4H-1L-5 26 14-6H1Z"/><animateTransform attributeName="transform" type="rotate" additive="sum" values="0;6;0;-6;0" keyTimes="0;0.25;0.5;0.75;1" calcMode="spline" keySplines=".45 0 .55 1;.45 0 .55 1;.45 0 .55 1;.45 0 .55 1" dur="3.2s" begin="0s" repeatCount="indefinite"/></g></g><g transform="translate(812 262) rotate(-6)"><g><rect x="7" y="7" width="214" height="128" rx="14" fill="#7C3AED"/><rect x="0" y="0" width="214" height="128" rx="14" fill="#262539" stroke="#FAF7F2" stroke-width="3"/><path d="M1.5 32H212.5" stroke="#FAF7F2" stroke-width="3"/><circle cx="20" cy="16.5" r="5.5" fill="#FFA3C4" stroke="#FAF7F2" stroke-width="2"/><circle cx="38" cy="16.5" r="5.5" fill="#FFD23F" stroke="#FAF7F2" stroke-width="2"/><circle cx="56" cy="16.5" r="5.5" fill="#8BE3B6" stroke="#FAF7F2" stroke-width="2"/><g fill="#A78BFA" transform="translate(22 98) scale(0.05200)"><use href="#display-less"/><use href="#display-slash" x="534"/><use href="#display-greater" x="899"/></g><g fill="#FAF7F2" transform="translate(108 90) scale(0.02100)"><use href="#body8-s"/><use href="#body8-h" x="515"/><use href="#body8-i" x="1114"/><use href="#body8-p" x="1374"/><use href="#body8-i" x="2227"/><use href="#body8-t" x="2487"/><use href="#body8-period" x="2908"/></g><animateTransform attributeName="transform" type="translate" additive="sum" values="0 0;0 -7;0 0" keyTimes="0;0.5;1" calcMode="spline" keySplines=".45 0 .55 1;.45 0 .55 1" dur="4.2s" begin="0s" repeatCount="indefinite"/></g></g><g transform="translate(971.585 352) rotate(5)"><g><rect x="5" y="5" width="178.4" height="46" rx="23" fill="#7C3AED"/><rect x="0" y="0" width="178.4" height="46" rx="23" fill="#FFA3C4" stroke="#FAF7F2" stroke-width="2.6"/><g fill="#1C1B2E" transform="translate(20 30.5) scale(0.01900)"><use href="#body8-d"/><use href="#body8-o" x="673"/><use href="#body8-n" x="1324"/><use href="#body8-e" x="1923"/><use href="#body8-greater" x="2714"/><use href="#body8-p" x="3572"/><use href="#body8-e" x="4245"/><use href="#body8-r" x="4856"/><use href="#body8-f" x="5242"/><use href="#body8-e" x="5642"/><use href="#body8-c" x="6253"/><use href="#body8-t" x="6864"/></g><animateTransform attributeName="transform" type="translate" additive="sum" values="0 0;0 -6;0 0" keyTimes="0;0.5;1" calcMode="spline" keySplines=".45 0 .55 1;.45 0 .55 1" dur="3.6s" begin="0.8s" repeatCount="indefinite"/></g></g><g transform="translate(820 92)"><g><path transform="translate(0 0)" fill="#A78BFA" d="M0 -13C2.34 -2.34 2.34 -2.34 13 0C2.34 2.34 2.34 2.34 0 13C-2.34 2.34 -2.34 2.34 -13 0C-2.34 -2.34 -2.34 -2.34 0 -13Z"/><animateTransform attributeName="transform" type="scale" additive="sum" values="1;0.55;1" keyTimes="0;0.5;1" calcMode="spline" keySplines=".45 0 .55 1;.45 0 .55 1" dur="2.6s" begin="0s" repeatCount="indefinite"/></g></g><g transform="translate(1160 262)"><g><path transform="translate(0 0)" fill="#FFD23F" d="M0 -11C1.98 -1.98 1.98 -1.98 11 0C1.98 1.98 1.98 1.98 0 11C-1.98 1.98 -1.98 1.98 -11 0C-1.98 -1.98 -1.98 -1.98 0 -11Z"/><animateTransform attributeName="transform" type="scale" additive="sum" values="1;0.55;1" keyTimes="0;0.5;1" calcMode="spline" keySplines=".45 0 .55 1;.45 0 .55 1" dur="3.1s" begin="0.5s" repeatCount="indefinite"/></g></g><g transform="translate(760 330)"><g><path transform="translate(0 0)" fill="#FFA3C4" d="M0 -9C1.6199999999999999 -1.6199999999999999 1.6199999999999999 -1.6199999999999999 9 0C1.6199999999999999 1.6199999999999999 1.6199999999999999 1.6199999999999999 0 9C-1.6199999999999999 1.6199999999999999 -1.6199999999999999 1.6199999999999999 -9 0C-1.6199999999999999 -1.6199999999999999 -1.6199999999999999 -1.6199999999999999 0 -9Z"/><animateTransform attributeName="transform" type="scale" additive="sum" values="1;0.55;1" keyTimes="0;0.5;1" calcMode="spline" keySplines=".45 0 .55 1;.45 0 .55 1" dur="2.2s" begin="1.1s" repeatCount="indefinite"/></g></g><g transform="translate(1164 42)"><g><path transform="translate(0 0)" fill="#8BE3B6" d="M0 -8C1.44 -1.44 1.44 -1.44 8 0C1.44 1.44 1.44 1.44 0 8C-1.44 1.44 -1.44 1.44 -8 0C-1.44 -1.44 -1.44 -1.44 0 -8Z"/><animateTransform attributeName="transform" type="scale" additive="sum" values="1;0.55;1" keyTimes="0;0.5;1" calcMode="spline" keySplines=".45 0 .55 1;.45 0 .55 1" dur="2.8s" begin="0.3s" repeatCount="indefinite"/></g></g></svg>